<?xml version="1.0" standalone="no"?>
<!DOCTYPE svg PUBLIC "-//W3C//DTD SVG 20010904//EN"
 "http://www.w3.org/TR/2001/REC-SVG-20010904/DTD/svg10.dtd">
<svg version="1.0" xmlns="http://www.w3.org/2000/svg"
 width="256.000000pt" height="256.000000pt" viewBox="0 0 256.000000 256.000000"
 preserveAspectRatio="xMidYMid meet">
<metadata>
Created by potrace 1.10, written by Peter Selinger 2001-2011
</metadata>
<g transform="translate(0.000000,256.000000) scale(0.100000,-0.100000)"
fill="#FFFFFF" stroke="none">
<path d="M1016 2534 c-440 -87 -822 -433 -959 -870 -29 -91 -50 -215 -45 -259
3 -28 4 -29 15 -10 6 11 19 56 27 100 52 254 159 463 330 643 181 190 416 312
717 372 31 6 65 17 75 25 17 13 14 14 -36 14 -30 -1 -86 -7 -124 -15z"/>
<path d="M1386 2536 c11 -8 74 -27 140 -41 242 -55 430 -151 597 -304 183
-170 303 -376 362 -622 15 -63 35 -134 44 -159 l16 -45 3 35 c5 49 -16 171
-45 264 -122 388 -436 706 -823 835 -83 27 -208 51 -268 51 -43 0 -45 -1 -26
-14z"/>
<path d="M720 1824 c-69 -25 -141 -77 -183 -133 -70 -91 -77 -124 -98 -446
-24 -371 -24 -406 0 -453 25 -48 66 -87 113 -106 44 -19 156 -21 193 -4 17 7
62 69 132 181 59 93 113 176 121 183 20 20 544 20 564 0 8 -7 61 -88 118 -180
68 -109 115 -173 132 -182 15 -8 56 -14 94 -14 82 0 140 25 184 78 54 65 55
82 36 410 -10 163 -22 324 -27 356 -18 121 -101 234 -216 292 -53 26 -67 29
-158 29 -90 0 -106 -3 -156 -28 l-56 -29 -59 19 c-82 25 -266 25 -348 0 l-59
-19 -56 29 c-46 23 -71 28 -141 30 -59 2 -99 -2 -130 -13z m240 -45 c24 -11
52 -26 60 -34 13 -12 24 -11 75 7 49 17 83 21 185 21 102 0 136 -4 185 -21 51
-18 62 -19 75 -7 62 56 203 72 304 34 75 -28 148 -96 187 -174 31 -63 31 -65
50 -357 25 -392 25 -417 -4 -459 -34 -52 -97 -79 -183 -79 l-71 0 -122 195
-123 195 -298 0 -298 0 -123 -195 -122 -195 -71 0 c-86 0 -149 27 -183 79 -29
42 -29 67 -4 459 19 292 19 294 50 357 38 77 111 146 184 174 72 28 186 28
247 0z"/>
<path d="M1710 1580 c-29 -29 -26 -74 6 -99 35 -27 65 -27 92 2 44 46 14 117
-48 117 -17 0 -39 -9 -50 -20z m68 -48 c3 -17 -2 -22 -17 -22 -14 0 -21 6 -21
18 0 38 33 41 38 4z"/>
<path d="M700 1496 l0 -55 -53 6 -53 5 0 -57 0 -57 53 4 53 3 0 -55 0 -55 52
3 53 4 0 51 0 51 53 -3 52 -2 0 57 0 57 -56 -7 -56 -6 4 55 3 55 -52 0 -53 0
0 -54z m60 -14 c0 -27 29 -63 64 -77 l31 -13 -28 -7 c-31 -8 -67 -49 -67 -76
0 -11 -4 -19 -10 -19 -5 0 -10 8 -10 18 0 26 -28 62 -59 73 -25 10 -25 11 -6
21 38 20 65 52 65 75 0 13 5 23 10 23 6 0 10 -8 10 -18z"/>
<path d="M1590 1460 c-43 -43 -11 -120 48 -120 35 0 72 37 72 71 0 57 -80 89
-120 49z m70 -51 c0 -12 -7 -19 -19 -19 -26 0 -36 17 -21 35 15 18 40 8 40
-16z"/>
<path d="M1831 1454 c-12 -15 -21 -34 -21 -44 0 -10 9 -29 21 -44 41 -53 119
-21 119 48 0 64 -79 90 -119 40z m75 -53 c-4 -6 -16 -11 -27 -11 -21 0 -27 35
-6 43 16 6 41 -18 33 -32z"/>
<path d="M1712 1337 c-44 -46 -14 -117 48 -117 63 0 93 75 47 118 -30 28 -68
28 -95 -1z m68 -45 c0 -24 -8 -32 -26 -25 -22 8 -17 43 6 43 13 0 20 -7 20
-18z"/>
<path d="M2529 1150 c-10 -25 -28 -92 -42 -150 -112 -480 -477 -833 -971 -939
-54 -12 -110 -28 -125 -36 -26 -14 -25 -14 21 -15 59 0 184 24 268 51 387 129
701 447 823 835 29 93 50 215 45 264 l-3 35 -16 -45z"/>
<path d="M10 1143 c0 -55 25 -183 51 -263 127 -381 438 -692 819 -819 84 -27
209 -51 268 -51 46 1 46 1 22 15 -14 7 -76 25 -138 39 -368 83 -659 296 -840
617 -54 96 -92 198 -127 342 -35 148 -55 191 -55 120z"/>
</g>
</svg>
