<?xml version="1.0" standalone="no"?>
<!DOCTYPE svg PUBLIC "-//W3C//DTD SVG 20010904//EN"
 "http://www.w3.org/TR/2001/REC-SVG-20010904/DTD/svg10.dtd">
<svg version="1.0" xmlns="http://www.w3.org/2000/svg"
 width="100.000000pt" height="100.000000pt" viewBox="0 0 810.000000 819.000000"
 preserveAspectRatio="xMidYMid meet">
<metadata>
Created by potrace 1.10, written by Peter Selinger 2001-2011
</metadata>
<g transform="translate(0.000000,819.000000) scale(0.100000,-0.100000)"
fill="#FFFFFF" stroke="none">
<path d="M3635 7959 c-22 -4 -76 -13 -120 -18 -85 -10 -170 -25 -245 -43 -25
-6 -65 -14 -90 -18 -25 -3 -61 -11 -80 -17 -19 -6 -62 -19 -95 -28 -33 -9 -73
-21 -90 -27 -16 -5 -43 -13 -60 -18 -48 -13 -98 -31 -128 -46 -16 -8 -34 -14
-42 -14 -31 0 -348 -146 -490 -225 -33 -19 -69 -39 -80 -45 -11 -6 -33 -19
-50 -30 -16 -11 -39 -24 -50 -30 -29 -15 -56 -32 -96 -62 -20 -16 -40 -28 -43
-28 -4 0 -62 -41 -129 -92 -312 -235 -560 -483 -795 -795 -51 -67 -92 -125
-92 -129 0 -3 -12 -23 -28 -43 -30 -40 -47 -67 -62 -96 -6 -11 -19 -33 -30
-50 -11 -16 -24 -39 -30 -50 -6 -11 -26 -47 -45 -80 -49 -88 -127 -248 -180
-370 -30 -71 -90 -235 -105 -290 -5 -16 -13 -43 -18 -60 -6 -16 -18 -57 -27
-90 -9 -33 -23 -80 -31 -105 -8 -25 -14 -57 -14 -72 0 -15 -5 -39 -11 -55 -6
-15 -15 -55 -19 -88 -5 -33 -13 -85 -19 -115 -36 -198 -41 -270 -41 -600 0
-330 5 -402 41 -600 6 -30 14 -82 19 -115 4 -33 13 -73 19 -88 6 -16 11 -40
11 -55 0 -15 6 -47 14 -72 8 -25 22 -72 31 -105 9 -33 21 -73 27 -90 5 -16 13
-43 18 -60 8 -29 17 -57 45 -135 55 -152 160 -381 240 -525 19 -33 39 -69 45
-80 6 -11 19 -33 30 -50 11 -16 24 -39 30 -50 15 -29 32 -56 63 -96 15 -20 27
-40 27 -43 0 -4 41 -62 92 -129 235 -312 483 -560 795 -795 67 -51 125 -92
129 -92 3 0 23 -12 43 -27 40 -31 67 -48 96 -63 11 -6 34 -19 50 -30 17 -11
39 -24 50 -30 11 -6 47 -26 80 -45 102 -57 285 -145 375 -180 25 -9 57 -23 72
-31 14 -8 33 -14 41 -14 9 0 28 -6 44 -14 30 -15 80 -33 128 -46 17 -5 44 -13
60 -18 17 -6 57 -18 90 -27 33 -9 80 -23 105 -31 25 -8 57 -14 72 -14 15 0 39
-5 55 -11 15 -6 55 -15 88 -19 33 -5 85 -13 115 -19 188 -35 274 -41 607 -41
199 0 363 4 394 11 30 5 88 14 129 19 41 5 102 14 135 20 141 27 213 42 260
55 86 22 169 46 200 57 17 5 44 13 60 18 48 13 98 31 128 46 16 8 35 14 42 14
8 0 31 7 52 16 21 9 52 23 68 30 112 48 281 130 370 179 33 19 69 39 80 45 11
6 34 19 50 30 17 11 39 24 50 30 29 15 56 32 96 63 20 15 40 27 43 27 4 0 62
41 129 92 312 235 560 483 795 795 51 67 92 125 92 129 0 3 12 23 28 43 30 40
47 67 62 96 6 11 19 34 30 50 11 17 24 39 30 50 6 11 26 47 45 80 38 68 93
179 137 275 16 36 36 78 44 93 8 16 14 36 14 45 0 9 7 26 15 36 8 11 15 28 15
37 0 10 6 30 14 46 15 30 33 80 46 128 5 17 13 44 18 60 6 17 18 57 27 90 9
33 23 80 31 105 8 25 14 57 14 72 0 15 5 39 11 55 6 15 15 55 19 88 5 33 13
85 19 115 35 188 41 274 41 607 0 199 -4 363 -11 394 -5 30 -14 88 -19 129 -5
41 -14 102 -20 135 -27 141 -42 213 -55 260 -22 86 -46 169 -57 200 -5 17 -13
44 -18 60 -13 48 -31 98 -46 128 -8 16 -14 35 -14 42 0 8 -7 31 -16 52 -9 21
-23 52 -30 68 -48 112 -130 281 -179 370 -19 33 -39 69 -45 80 -6 11 -19 34
-30 50 -11 17 -24 39 -30 50 -15 29 -32 56 -62 96 -16 20 -28 40 -28 43 0 4
-41 62 -92 129 -235 312 -483 560 -795 795 -67 51 -125 92 -129 92 -3 0 -23
13 -43 28 -20 16 -43 32 -51 35 -8 4 -28 16 -45 27 -16 11 -39 24 -50 30 -11
6 -33 19 -50 29 -100 64 -373 197 -525 256 -80 31 -176 64 -215 75 -16 5 -43
13 -60 18 -31 11 -112 34 -200 57 -76 21 -180 42 -285 59 -285 46 -296 46
-655 45 -192 -1 -368 -5 -390 -10z m-769 -2270 c81 -11 198 -49 249 -80 17
-10 42 -24 55 -31 14 -7 50 -30 81 -51 l57 -38 53 15 c30 8 101 29 159 46 171
51 310 70 517 70 214 0 337 -16 508 -66 66 -19 144 -42 174 -50 l53 -15 57 38
c31 21 67 44 81 51 13 7 38 21 55 31 51 31 168 69 249 80 251 35 517 -27 728
-170 79 -54 222 -196 270 -269 143 -219 178 -350 198 -750 6 -118 17 -314 25
-435 73 -1130 74 -1152 63 -1224 -27 -179 -168 -336 -351 -392 -52 -16 -95
-19 -268 -19 -235 0 -207 -11 -279 106 -40 66 -141 226 -180 289 -8 13 -41 65
-73 117 -32 51 -94 149 -137 218 -43 69 -109 175 -146 235 -38 61 -82 130 -99
155 l-32 45 -893 0 -893 0 -32 -45 c-17 -25 -61 -94 -99 -155 -37 -60 -103
-166 -146 -235 -43 -69 -104 -165 -135 -215 -31 -49 -92 -146 -135 -215 -43
-69 -97 -156 -121 -195 -69 -115 -43 -105 -278 -105 -229 0 -280 9 -384 69
-117 67 -218 213 -236 343 -10 71 -9 89 64 1228 8 124 19 315 25 425 20 396
47 506 172 713 59 99 198 245 293 309 217 146 478 207 731 172z m-47 -3261
c60 -34 82 -77 79 -151 l-3 -62 -80 0 -80 0 -5 52 c-6 55 -12 69 -29 59 -14
-9 -10 -378 5 -383 29 -10 45 95 18 117 -10 9 -14 26 -12 49 l3 36 90 0 90 0
0 -160 0 -160 -44 -3 c-25 -2 -55 2 -68 9 -18 10 -26 10 -35 1 -7 -7 -38 -12
-71 -12 -69 0 -116 29 -148 93 -19 36 -20 55 -17 231 3 217 11 242 84 283 55
32 169 32 223 1z m2746 -293 l0 -310 -85 2 c-47 1 -92 2 -100 2 -8 0 -39 -2
-68 -5 -61 -7 -78 3 -113 69 -20 39 -20 50 -14 212 8 174 14 203 53 239 17 15
33 17 89 15 l68 -4 3 35 c5 61 5 61 89 58 l78 -3 0 -310z m-2320 204 c58 -35
64 -63 67 -303 l3 -211 -153 -1 c-144 -2 -155 0 -178 20 -21 17 -26 33 -31 91
-8 103 4 135 58 162 24 12 52 24 62 27 36 11 5 26 -54 26 -71 0 -76 7 -63 88
8 50 14 60 52 89 41 31 49 33 122 33 62 0 86 -4 115 -21z m285 6 c12 -14 15
-14 30 0 22 20 103 20 120 0 21 -25 48 -27 69 -6 31 31 111 29 148 -3 l28 -24
0 -244 0 -243 -75 0 -75 0 -3 215 c-2 198 -9 247 -29 226 -5 -4 -10 -105 -13
-224 l-5 -217 -75 0 -75 0 -5 212 c-3 147 -9 216 -17 224 -20 20 -23 -2 -25
-226 l-3 -210 -80 0 -80 0 -3 255 c-1 140 0 260 3 267 7 20 149 18 165 -2z
m731 -6 c22 -12 43 -29 46 -38 4 -9 12 -23 20 -32 10 -12 13 -39 11 -95 l-3
-79 -95 -5 -95 -5 0 -80 c0 -73 2 -80 20 -80 17 0 21 8 25 65 l5 65 70 0 70 0
3 -66 c2 -50 -1 -69 -13 -79 -8 -7 -15 -19 -15 -26 0 -8 -18 -25 -40 -39 -52
-33 -159 -36 -217 -5 -70 36 -78 61 -78 255 0 163 1 172 23 200 37 48 78 65
154 65 49 0 78 -6 109 -21z m292 4 c18 -17 19 -17 28 0 7 12 23 17 55 17 56 0
77 -11 103 -54 19 -30 21 -49 21 -183 0 -196 -6 -237 -40 -273 -23 -25 -36
-30 -73 -30 -27 0 -52 6 -61 15 -24 25 -35 17 -38 -27 l-3 -43 -80 0 -80 0 -5
288 c-3 176 -1 292 5 298 5 5 40 9 79 9 52 0 74 -4 89 -17z m554 -20 l41 -38
7 -205 c4 -113 6 -216 4 -230 -4 -24 -8 -25 -73 -28 -54 -2 -72 1 -88 15 -19
17 -20 17 -29 0 -8 -13 -23 -17 -63 -17 -45 0 -56 4 -81 30 -25 26 -30 40 -33
95 -2 35 -1 76 2 89 8 31 65 76 107 85 51 10 33 26 -38 31 l-68 5 -3 37 c-4
48 31 126 62 138 13 5 27 14 31 19 3 7 43 11 94 11 87 0 88 0 128 -37z m-1732
-893 l0 -55 -42 -3 -43 -3 -2 -252 -3 -252 -85 0 -85 0 -3 252 -2 252 -43 3
c-42 3 -42 3 -45 47 -6 75 -13 72 180 69 l173 -3 0 -55z m953 -13 c3 -30 9
-40 28 -47 19 -8 24 -17 24 -45 0 -29 -5 -37 -25 -45 l-26 -10 3 -157 3 -157
33 -8 c33 -9 35 -16 16 -75 -2 -9 -29 -13 -86 -13 -75 0 -86 2 -111 25 l-27
26 0 184 c0 158 -2 185 -15 185 -11 0 -15 11 -15 39 0 22 6 44 15 51 8 7 15
27 15 45 0 17 3 35 7 39 4 4 41 5 83 4 l75 -3 3 -38z m-679 -37 c58 -29 83
-79 85 -170 l1 -75 -100 -5 -100 -5 -3 -79 c-3 -82 7 -111 31 -88 6 7 14 41
17 75 l5 62 75 0 75 0 3 -48 c4 -61 -29 -130 -78 -163 -29 -20 -47 -24 -112
-24 -71 0 -79 2 -119 33 -55 42 -69 88 -69 237 0 144 14 193 66 237 36 30 44
33 112 33 53 0 83 -5 111 -20z m404 -5 c38 -26 49 -52 51 -114 l1 -36 -72 -3
-73 -3 0 33 c0 18 -4 39 -9 47 -14 22 -31 3 -31 -36 0 -26 5 -36 20 -40 11 -3
20 -9 20 -13 0 -4 25 -20 56 -36 80 -41 104 -75 104 -153 0 -117 -48 -161
-175 -161 -60 0 -85 5 -110 20 -41 25 -68 75 -63 120 l3 35 70 0 70 0 3 -43
c3 -34 7 -43 20 -40 24 5 28 64 6 89 -10 11 -41 33 -70 50 -29 16 -64 44 -78
60 -23 27 -26 40 -26 103 0 66 2 74 28 98 44 41 63 47 142 48 64 0 81 -4 113
-25z m645 -5 c56 -40 64 -59 65 -154 l2 -81 -95 -5 -95 -5 -3 -65 c-4 -75 4
-113 21 -107 7 2 14 31 17 73 l5 69 75 0 75 0 -2 -67 c-2 -119 -54 -168 -177
-168 -79 0 -125 21 -161 74 -24 36 -25 42 -25 204 1 159 2 168 24 195 42 52
74 65 157 66 69 1 80 -2 117 -29z m273 9 l11 -21 23 22 c13 12 31 20 42 18 15
-3 18 -14 21 -70 l3 -67 -36 -17 c-20 -9 -41 -26 -48 -38 -7 -13 -14 -83 -17
-181 l-5 -160 -75 0 -75 0 -3 255 c-1 140 0 260 3 267 3 9 27 13 74 13 61 0
72 -3 82 -21z"/>
<path d="M5415 5090 c-43 -14 -102 -66 -125 -111 -26 -51 -27 -137 -1 -187 86
-167 317 -161 391 10 58 134 -33 284 -178 294 -31 2 -70 -1 -87 -6z"/>
<path d="M2310 4942 c-6 -2 -10 -60 -10 -146 0 -97 -4 -146 -12 -154 -8 -8
-56 -12 -149 -12 -88 0 -140 -4 -144 -11 -8 -12 -8 -289 -1 -297 3 -2 60 -5
128 -5 67 0 133 -3 147 -7 l26 -6 5 -150 5 -149 130 -3 c192 -4 175 -19 175
153 l0 145 28 11 c16 7 75 9 149 7 67 -3 127 -2 133 2 7 4 10 56 8 156 l-3
149 -144 3 c-86 1 -150 7 -158 14 -10 8 -13 47 -13 154 0 108 -3 144 -12 144
-80 3 -280 4 -288 2z"/>
<path d="M5070 4733 c-40 -7 -102 -55 -134 -103 -25 -36 -30 -54 -30 -104 0
-129 85 -216 214 -216 128 0 210 82 210 210 0 91 -38 154 -117 194 -35 18
-103 27 -143 19z"/>
<path d="M5815 4736 c-5 -3 -22 -7 -38 -10 -38 -9 -106 -73 -128 -121 -63
-138 42 -295 196 -295 78 0 138 32 185 100 21 30 25 46 25 110 0 67 -3 80 -30
120 -17 25 -49 55 -72 68 -38 21 -115 36 -138 28z"/>
<path d="M5398 4356 c-40 -17 -97 -75 -114 -115 -32 -76 -10 -186 48 -237 54
-48 82 -59 148 -58 91 0 155 37 197 117 25 46 24 152 -2 192 -53 84 -106 115
-192 114 -32 0 -70 -6 -85 -13z"/>
<path d="M5367 2263 c-12 -12 -8 -341 4 -349 22 -13 29 24 29 173 0 170 -6
203 -33 176z"/>
<path d="M3116 2263 c-3 -3 -6 -30 -6 -60 0 -40 4 -53 15 -53 11 0 15 13 15
54 0 51 -9 74 -24 59z"/>
<path d="M3110 1980 c0 -56 3 -70 15 -70 12 0 15 14 15 70 0 56 -3 70 -15 70
-12 0 -15 -14 -15 -70z"/>
<path d="M4140 2220 c0 -16 5 -30 10 -30 6 0 10 14 10 30 0 17 -4 30 -10 30
-5 0 -10 -13 -10 -30z"/>
<path d="M4555 2259 c-10 -26 -1 -339 10 -339 14 0 19 330 6 343 -7 7 -12 5
-16 -4z"/>
<path d="M4957 2253 c-4 -3 -7 -26 -7 -50 0 -37 3 -44 18 -41 22 4 29 70 9 86
-8 7 -17 9 -20 5z"/>
<path d="M4961 2027 c-17 -32 -11 -102 9 -102 11 0 16 15 18 63 3 65 -6 78
-27 39z"/>
<path d="M3537 1303 c-4 -3 -7 -24 -7 -45 0 -27 4 -38 15 -38 11 0 15 12 15
45 0 42 -7 54 -23 38z"/>
<path d="M4580 1260 c0 -16 5 -30 10 -30 6 0 10 14 10 30 0 17 -4 30 -10 30
-5 0 -10 -13 -10 -30z"/>
</g>
</svg>
