<?xml version="1.0" standalone="no"?>
<!DOCTYPE svg PUBLIC "-//W3C//DTD SVG 20010904//EN"
 "http://www.w3.org/TR/2001/REC-SVG-20010904/DTD/svg10.dtd">
<svg version="1.0" xmlns="http://www.w3.org/2000/svg"
 width="100.000000pt" height="100.000000pt" viewBox="0 0 300.000000 103.000000"
 preserveAspectRatio="xMidYMid meet">
<metadata>
Created by potrace 1.10, written by Peter Selinger 2001-2011
</metadata>
<g transform="translate(0.000000,103.000000) scale(0.100000,-0.100000)"
fill="#FFFFFF" stroke="none">
<path d="M400 867 c-292 -93 -328 -107 -350 -134 -18 -24 -20 -41 -20 -210 0
-203 7 -232 57 -251 54 -20 359 -115 435 -136 93 -25 125 -18 150 34 15 30 18
78 20 363 l3 328 -33 30 c-22 20 -42 29 -65 28 -17 0 -106 -24 -197 -52z m240
3 c19 -19 20 -33 20 -355 0 -322 -1 -336 -20 -355 -11 -11 -26 -20 -34 -20 -8
0 -115 32 -237 71 -123 39 -239 75 -256 80 -18 6 -37 18 -43 29 -15 29 -13
372 3 394 12 16 487 173 530 175 9 1 26 -8 37 -19z"/>
<path d="M152 728 c3 -9 443 -157 471 -158 24 -1 -4 25 -39 36 -21 7 -124 40
-228 73 -105 34 -194 61 -199 61 -5 0 -7 -5 -5 -12z"/>
<path d="M455 408 c-88 -27 -180 -56 -205 -63 -25 -7 -58 -18 -73 -24 -36 -14
-27 -33 11 -21 23 8 87 28 381 119 30 9 56 22 59 29 5 17 6 17 -173 -40z"/>
<path d="M1447 742 c-10 -11 -17 -35 -17 -59 0 -23 -3 -48 -6 -57 -5 -14 -8
-14 -28 0 -18 11 -47 13 -124 10 l-102 -3 0 28 c0 39 -32 69 -73 69 -62 0 -67
-15 -67 -208 l0 -171 26 -20 c32 -25 47 -26 79 -5 23 15 28 15 59 0 35 -17 58
-13 98 16 13 10 20 9 35 -3 30 -27 53 -30 89 -13 28 13 37 14 49 4 9 -7 44
-14 79 -14 53 -1 69 3 105 27 l43 29 29 -28 c20 -19 38 -27 61 -26 18 0 60 2
93 2 37 1 66 7 76 16 15 13 20 12 51 -6 30 -17 46 -19 113 -15 51 3 85 11 96
21 25 22 32 1 12 -33 -32 -56 14 -97 108 -97 85 1 123 32 153 127 5 16 8 16
46 -4 51 -27 123 -22 169 11 l32 22 25 -23 c47 -44 154 -21 154 34 0 10 -11
32 -25 49 -33 39 -32 71 5 108 37 38 38 56 4 91 -15 15 -32 38 -38 51 -6 13
-24 29 -39 36 -35 17 -59 4 -93 -49 -19 -30 -30 -39 -42 -34 -9 4 -36 12 -60
17 -36 8 -49 6 -87 -12 -42 -21 -47 -21 -70 -6 -36 24 -164 26 -199 2 -15 -10
-30 -15 -33 -13 -2 3 -6 27 -8 53 -2 37 -9 53 -30 71 -49 43 -96 23 -109 -47
-6 -30 -14 -39 -63 -63 l-57 -27 -21 20 c-28 26 -73 25 -102 -2 l-23 -21 -23
21 c-27 26 -64 28 -95 6 -20 -14 -25 -14 -45 -1 -12 8 -36 17 -54 21 -24 6
-32 14 -37 39 -13 66 -82 100 -119 59z m71 -24 c7 -7 12 -38 12 -69 l0 -57 30
11 c65 24 120 -31 120 -121 0 -85 -44 -132 -125 -132 -102 0 -95 -13 -95 196
l0 184 23 0 c13 0 28 -5 35 -12z m660 0 c6 -8 11 -87 13 -188 3 -160 2 -175
-14 -178 -10 -2 -24 1 -31 7 -9 8 -22 7 -46 -5 -62 -31 -119 15 -127 103 -9
93 42 161 112 150 l35 -6 0 65 c0 61 1 64 24 64 13 0 28 -6 34 -12z m-1046
-193 l-3 -175 -34 0 -35 0 0 175 0 175 38 0 37 0 -3 -175z m1688 115 c0 -39 1
-40 33 -38 28 3 32 0 32 -22 0 -22 -4 -25 -33 -22 l-33 2 3 -77 c3 -77 3 -78
31 -81 21 -3 27 -9 27 -28 0 -22 -4 -24 -48 -24 -26 0 -53 5 -60 12 -8 8 -12
46 -12 106 0 87 -1 93 -19 87 -14 -4 -21 0 -26 14 -9 28 3 43 26 36 16 -5 19
-1 19 28 0 40 6 47 37 47 20 0 23 -5 23 -40z m-1568 -44 c12 -12 18 -12 39 0
49 27 94 12 112 -38 3 -9 7 -58 8 -110 l2 -93 -34 0 -34 0 -3 93 c-3 101 -13
117 -54 90 -19 -13 -21 -22 -19 -101 l2 -87 -38 0 -38 0 2 127 c2 71 3 129 3
131 1 8 41 0 52 -12z m526 2 c8 -8 12 -45 12 -100 0 -80 2 -88 19 -88 48 0 51
7 51 106 l0 94 35 0 35 0 2 -105 c1 -58 2 -115 2 -127 1 -28 -29 -36 -52 -15
-15 13 -20 14 -36 1 -27 -19 -90 -18 -107 2 -17 21 -29 225 -14 236 15 11 40
9 53 -4z m602 2 c14 -7 25 -7 39 2 11 7 23 9 28 5 8 -9 5 -233 -4 -285 -7 -45
-54 -82 -103 -82 -62 0 -100 11 -100 29 0 34 14 41 53 29 53 -16 87 1 87 43 0
26 -2 29 -14 20 -25 -21 -87 -9 -109 21 -25 33 -34 117 -17 158 25 59 90 87
140 60z m291 -19 c24 -25 29 -38 29 -78 l0 -49 -70 4 c-64 4 -70 3 -70 -15 0
-10 5 -24 12 -31 15 -15 62 -16 88 -2 15 8 21 6 30 -10 15 -28 8 -36 -44 -49
-56 -14 -98 -5 -128 26 -20 21 -23 35 -23 100 0 72 1 76 33 104 45 41 102 41
143 0z"/>
<path d="M1537 543 c-4 -3 -7 -37 -7 -75 l0 -68 28 0 c21 0 32 7 40 25 15 32
15 80 2 106 -10 18 -50 26 -63 12z"/>
<path d="M2060 545 c-32 -38 -19 -145 18 -145 31 0 42 22 42 86 0 47 -4 63
-16 68 -23 9 -30 8 -44 -9z"/>
<path d="M2316 538 c-20 -28 -21 -98 -2 -123 12 -17 18 -18 40 -7 24 11 26 16
26 76 0 49 -4 65 -16 70 -25 10 -32 7 -48 -16z"/>
<path d="M2572 548 c-7 -7 -12 -20 -12 -30 0 -14 8 -18 40 -18 32 0 40 4 40
18 0 22 -19 42 -40 42 -9 0 -21 -5 -28 -12z"/>
</g>
</svg>
