<?xml version="1.0" standalone="no"?>
<!DOCTYPE svg PUBLIC "-//W3C//DTD SVG 20010904//EN"
 "http://www.w3.org/TR/2001/REC-SVG-20010904/DTD/svg10.dtd">
<svg version="1.0" xmlns="http://www.w3.org/2000/svg"
 width="382.000000pt" height="120.000000pt" viewBox="0 0 382.000000 120.000000"
 preserveAspectRatio="xMidYMid meet">
<metadata>
Created by potrace 1.10, written by Peter Selinger 2001-2011
</metadata>
<g transform="translate(0.000000,120.000000) scale(0.100000,-0.100000)"
fill="#FFFFFF" stroke="none">
<path d="M407 1012 c-13 -15 -17 -57 -22 -257 -4 -189 -9 -244 -20 -257 -8
-10 -19 -18 -25 -18 -19 0 -50 40 -50 64 0 36 -26 56 -71 56 -68 0 -79 -12
-79 -82 0 -96 58 -171 143 -183 81 -12 151 2 189 38 73 69 72 66 76 335 4 253
2 281 -24 306 -22 22 -96 21 -117 -2z m113 -266 c0 -140 -4 -257 -9 -260 -5
-3 -12 -18 -15 -32 -8 -30 -28 -53 -64 -71 -29 -15 -182 -18 -182 -3 0 6 -6
10 -13 10 -16 0 -47 36 -47 55 0 9 -7 18 -15 21 -11 4 -15 21 -15 55 l0 49 54
0 55 0 -3 -44 c-3 -57 23 -84 76 -81 73 5 73 6 71 297 l-3 258 55 0 55 0 0
-254z"/>
<path d="M2492 1014 c-17 -12 -22 -25 -22 -58 0 -24 6 -48 13 -53 22 -18 69
-24 102 -13 27 9 32 15 28 33 -4 18 -3 19 6 7 8 -12 11 -6 11 25 0 29 -3 36
-10 25 -8 -12 -10 -9 -10 11 0 15 -7 30 -16 33 -29 11 -79 6 -102 -10z m104
-56 l3 -38 -53 0 c-60 0 -73 7 -48 27 16 12 16 14 -1 24 -28 17 -11 26 45 25
l52 -1 2 -37z"/>
<path d="M663 824 c-50 -33 -76 -75 -76 -124 0 -46 8 -60 34 -60 27 0 24 -9
-18 -53 -36 -35 -38 -42 -38 -99 0 -40 4 -63 13 -66 6 -2 10 -7 7 -12 -3 -4
11 -22 29 -38 44 -38 121 -50 218 -34 48 8 75 9 97 1 38 -13 78 -5 109 23 20
19 22 32 24 127 l2 106 6 -105 5 -105 5 105 c3 58 3 152 -1 210 l-5 105 -4
-105 -4 -105 -6 110 -6 110 -3 -100 c-2 -55 -6 -125 -11 -155 -6 -48 -7 -41
-9 54 -1 127 -20 182 -75 216 -28 17 -50 20 -143 20 -101 0 -112 -2 -150 -26z
m257 -14 c0 -5 9 -10 21 -10 12 0 23 -8 26 -20 3 -11 9 -20 14 -20 5 0 9 -76
9 -169 0 -142 3 -172 16 -186 28 -27 11 -40 -46 -36 -45 3 -51 5 -47 22 8 30
-11 32 -37 5 -22 -24 -29 -26 -120 -26 -57 0 -96 4 -96 10 0 6 -6 10 -14 10
-8 0 -20 14 -28 30 -7 17 -16 30 -20 30 -5 0 -8 18 -8 41 0 24 4 38 10 34 6
-4 10 5 10 19 0 16 6 26 15 26 8 0 15 7 15 15 0 9 9 15 25 15 14 0 25 5 25 10
0 6 28 10 65 10 51 0 67 4 72 16 4 10 13 14 27 10 12 -3 31 -3 43 0 22 6 22 7
6 48 -9 22 -18 43 -20 45 -1 2 -32 6 -68 7 -55 3 -69 0 -86 -17 -12 -12 -18
-27 -14 -38 5 -15 -2 -18 -50 -20 l-55 -2 0 30 c0 17 5 31 10 31 6 0 14 8 17
17 11 29 36 53 55 53 10 0 18 5 18 10 0 6 42 10 105 10 63 0 105 -4 105 -10z
m-65 -111 c4 -6 5 -12 2 -15 -9 -10 -118 -37 -124 -31 -3 4 2 18 11 32 13 20
24 25 61 25 24 0 47 -5 50 -11z"/>
<path d="M834 555 c-5 -13 -18 -16 -59 -14 -57 3 -85 -13 -85 -49 0 -39 34
-55 102 -49 34 3 64 10 66 16 2 6 10 11 18 11 8 0 14 10 14 24 0 13 4 26 9 28
5 2 11 12 13 23 2 17 -3 21 -35 23 -27 2 -39 -1 -43 -13z m11 -55 c-13 -14
-31 -20 -62 -20 -62 0 -52 23 13 31 27 3 53 7 58 7 5 1 1 -7 -9 -18z"/>
<path d="M1083 843 c-29 -10 -10 -21 35 -20 44 0 47 -1 50 -27 l3 -27 26 25
c23 23 34 26 95 26 63 0 72 -3 101 -29 31 -30 47 -32 47 -5 0 8 9 14 20 14 21
0 28 16 10 22 -6 2 32 3 84 3 74 0 92 -3 84 -12 -8 -10 -5 -13 11 -13 11 0 21
-6 21 -14 0 -8 5 -16 10 -18 7 -2 11 -78 13 -205 2 -196 2 -201 -18 -197 -11
2 -35 1 -53 -2 -41 -8 -24 -24 25 -24 65 0 63 -9 63 219 l0 208 -34 38 c-32
38 -36 39 -104 43 -57 3 -79 0 -109 -15 -38 -20 -62 -20 -75 1 -7 11 -277 18
-305 9z"/>
<path d="M1786 836 c-15 -11 -20 -114 -17 -361 1 -81 4 -105 12 -92 7 11 9 96
7 231 l-3 214 40 -3 c35 -2 40 -6 43 -29 2 -14 5 -26 8 -26 11 0 46 39 41 47
-3 4 37 8 88 8 74 0 91 -3 83 -12 -8 -10 -6 -13 5 -13 9 0 19 -9 22 -21 l7
-21 22 21 c12 12 28 21 35 21 7 0 9 5 5 11 -3 6 -18 9 -33 6 -16 -3 -33 1 -45
11 -15 14 -43 17 -162 18 -92 1 -149 -3 -158 -10z"/>
<path d="M2186 841 c-18 -7 -18 -8 -2 -14 10 -4 49 -7 87 -7 39 0 69 -4 69
-10 0 -5 6 -10 13 -10 19 0 47 -53 40 -78 -4 -16 -1 -22 11 -22 14 0 16 -20
16 -167 l0 -168 -56 0 -55 0 3 182 c2 100 0 185 -4 189 -4 4 -29 8 -55 9 -49
2 -83 -15 -83 -42 0 -7 -7 -13 -16 -13 -14 0 -16 -19 -13 -164 l4 -164 -38 3
c-21 1 -48 0 -60 -3 -20 -5 -20 -6 -1 -13 24 -9 77 -11 98 -3 13 5 16 26 16
126 0 77 4 117 10 113 6 -4 10 11 10 37 0 31 -3 39 -10 28 -8 -12 -10 -12 -10
-1 0 20 56 71 79 71 51 0 51 -1 51 -180 0 -193 3 -200 74 -200 71 0 76 12 76
191 0 155 -5 203 -20 194 -5 -3 -8 8 -8 24 1 30 -16 53 -61 83 -27 19 -127 24
-165 9z"/>
<path d="M2480 830 c-19 -19 -20 -33 -20 -233 0 -236 3 -250 63 -261 18 -3 47
-1 64 4 24 9 30 16 26 33 -4 18 -3 19 6 7 8 -11 11 13 11 93 0 64 4 107 10
107 6 0 10 -40 10 -99 0 -57 4 -103 10 -106 6 -4 8 -10 5 -15 -8 -14 62 -32
95 -25 53 12 60 33 60 196 0 131 2 148 19 163 12 11 31 16 53 14 l33 -3 6 -70
c4 -38 7 -116 8 -171 1 -117 8 -129 76 -129 64 0 75 15 75 101 0 78 14 106 24
49 4 -19 11 -35 15 -35 5 0 12 -11 15 -25 4 -14 11 -25 16 -25 18 0 10 -19
-10 -25 -51 -16 -50 -91 4 -146 63 -64 62 -64 176 -64 103 0 106 1 150 33 81
59 84 71 88 361 3 224 1 255 -13 271 -15 16 -35 19 -171 19 l-155 1 -44 -41
c-25 -23 -45 -48 -45 -55 0 -8 -4 -14 -10 -14 -5 0 -12 -16 -16 -35 -8 -46
-24 -35 -24 17 0 35 -6 47 -44 84 l-43 44 -163 -1 c-150 -1 -163 -2 -167 -20
-3 -10 -9 -16 -14 -13 -5 3 -9 -42 -9 -100 0 -64 -4 -106 -10 -106 -6 0 -10
43 -10 110 0 125 -3 130 -84 130 -33 0 -52 -6 -66 -20z m115 -236 l0 -224 -52
0 c-51 0 -77 13 -48 24 22 8 22 401 0 410 -33 12 -12 21 42 18 l58 -4 0 -224z
m22 214 c-3 -8 -6 -5 -6 6 -1 11 2 17 5 13 3 -3 4 -12 1 -19z m152 -5 c-4 -43
2 -46 29 -15 28 31 31 32 110 32 48 0 82 -4 82 -10 0 -5 5 -10 11 -10 14 0 39
-25 39 -40 0 -6 7 -13 15 -16 13 -5 15 -36 15 -188 0 -101 -2 -185 -4 -187 -2
-2 -28 -2 -57 0 l-52 3 7 169 c6 163 6 169 -15 190 -43 43 -159 7 -159 -48 0
-13 -6 -23 -12 -23 -9 0 -9 -3 1 -9 9 -6 11 -15 6 -27 -10 -26 -6 -217 6 -228
19 -20 7 -26 -48 -26 l-58 0 0 225 0 225 43 0 c35 0 43 -3 41 -17z m655 -8
c30 -32 40 -32 32 1 -7 24 -6 25 39 22 l46 -3 -1 -240 c0 -145 -4 -241 -10
-243 -6 -2 -10 -14 -10 -27 0 -25 -43 -76 -73 -88 -9 -3 -17 -11 -17 -17 0 -6
-36 -10 -94 -10 -71 0 -97 4 -106 15 -7 8 -16 15 -21 15 -14 0 -49 39 -49 54
0 8 -4 16 -9 18 -5 2 -11 14 -13 28 -3 24 0 25 50 28 50 3 52 2 52 -23 0 -43
21 -55 99 -55 54 0 71 3 71 14 0 8 7 16 15 20 10 4 15 20 15 50 0 34 4 45 18
48 11 2 13 6 6 11 -6 3 -24 -5 -38 -18 -24 -22 -36 -25 -107 -25 -46 0 -79 4
-79 10 0 6 -5 10 -11 10 -12 0 -58 53 -76 88 -16 29 -18 218 -3 227 6 3 10 12
10 20 0 15 56 75 71 75 5 0 9 5 9 10 0 6 33 10 80 10 73 0 83 -2 104 -25z
m-44 -480 c-15 -18 -63 -20 -93 -2 -20 11 -16 12 38 17 70 6 72 5 55 -15z"/>
<path d="M3291 743 c-28 -11 -51 -38 -51 -60 0 -13 -5 -23 -11 -23 -6 0 -9
-24 -7 -65 1 -36 6 -65 10 -65 5 0 8 -10 8 -23 0 -33 35 -58 91 -64 45 -5 51
-3 79 27 22 24 30 42 30 70 0 22 5 40 13 43 10 3 10 9 0 26 -7 11 -13 34 -13
49 0 45 -51 92 -98 91 -20 0 -43 -3 -51 -6z m98 -59 c35 -44 26 -170 -13 -196
-22 -15 -73 -8 -92 13 -14 16 -18 36 -19 95 0 68 3 78 24 95 34 27 75 24 100
-7z"/>
<path d="M1250 743 c-31 -6 -60 -31 -60 -53 0 -9 -4 -20 -10 -26 -5 -5 -11
-75 -12 -154 -3 -136 -4 -145 -22 -142 -11 2 -35 0 -55 -3 -31 -6 -33 -9 -16
-15 25 -11 87 -12 101 -2 6 4 12 54 13 122 1 63 7 117 12 118 5 2 9 24 9 48 0
52 26 84 68 84 l29 0 6 -97 c4 -54 7 -134 7 -178 0 -55 3 -75 10 -65 5 8 10
90 10 182 0 155 -1 168 -19 178 -20 10 -28 11 -71 3z m-53 -125 c-3 -7 -5 -2
-5 12 0 14 2 19 5 13 2 -7 2 -19 0 -25z"/>
<path d="M1498 743 c-16 -3 -28 -10 -28 -18 0 -7 -7 -16 -16 -19 -14 -5 -15
-28 -12 -175 l3 -168 -45 2 c-55 2 -78 -4 -58 -16 20 -13 94 -11 106 4 6 7 12
78 14 166 3 146 4 154 27 177 14 14 35 24 52 24 l29 0 2 -172 c2 -127 3 -144
5 -65 2 59 8 107 13 107 5 0 11 -42 13 -92 2 -51 3 -20 3 69 -1 89 -3 164 -6
166 -8 8 -72 14 -102 10z"/>
<path d="M1952 743 c-13 -3 -32 -13 -43 -24 -17 -17 -19 -34 -19 -171 0 -185
19 -241 22 -68 3 183 5 197 19 217 8 11 29 20 51 22 l36 2 2 -172 c0 -95 3
-175 5 -178 3 -2 5 46 5 107 0 143 18 159 23 20 2 -74 3 -59 4 55 1 88 -3 157
-8 157 -5 0 -9 7 -9 15 0 8 -6 15 -12 16 -7 0 -22 2 -33 3 -11 2 -30 1 -43 -1z"/>
<path d="M1796 360 c-18 -6 -18 -7 -2 -13 26 -10 79 -8 96 3 17 11 20 10 -45
15 -17 1 -39 -1 -49 -5z"/>
</g>
</svg>
