<?xml version="1.0" standalone="no"?>
<!DOCTYPE svg PUBLIC "-//W3C//DTD SVG 20010904//EN"
 "http://www.w3.org/TR/2001/REC-SVG-20010904/DTD/svg10.dtd">
<svg version="1.0" xmlns="http://www.w3.org/2000/svg"
 width="100.000000pt" height="100.000000pt" viewBox="0 0 436.000000 425.000000"
 preserveAspectRatio="xMidYMid meet">
<metadata>
Created by potrace 1.10, written by Peter Selinger 2001-2011
</metadata>
<g transform="translate(0.000000,425.000000) scale(0.050000,-0.050000)"
fill="#FFFFFF" stroke="none">
<path d="M3930 8338 c-1471 -155 -2791 -1111 -3392 -2458 -991 -2219 43 -4790
2289 -5693 446 -179 493 -132 493 496 l0 422 -45 -13 c-284 -80 -709 -50 -946
67 -221 109 -310 208 -460 513 -142 288 -257 430 -453 562 -212 143 -196 236
40 235 245 -1 477 -154 658 -436 260 -404 663 -549 1085 -391 l128 48 27 117
c33 147 110 304 190 387 l62 64 -48 9 c-26 5 -124 20 -216 33 -994 137 -1544
721 -1643 1741 -52 543 39 932 304 1299 l108 150 -37 130 c-52 188 -38 606 28
830 l48 160 86 6 c194 14 609 -141 925 -345 l144 -94 253 51 c578 116 1158
109 1715 -21 l143 -33 147 94 c319 206 650 334 873 339 l134 3 44 -131 c92
-275 104 -589 34 -872 l-30 -122 100 -132 c237 -314 312 -570 312 -1063 -2
-1160 -566 -1840 -1652 -1990 -290 -40 -273 -29 -187 -123 186 -207 209 -337
209 -1200 0 -963 13 -983 493 -790 1898 763 2979 2753 2587 4765 -416 2132
-2404 3612 -4550 3386z m1007 -269 c1460 -199 2748 -1256 3192 -2619 257 -789
269 -1795 30 -2540 -295 -920 -888 -1689 -1689 -2189 -283 -178 -808 -409
-844 -373 -9 8 -21 341 -27 739 -9 604 -17 739 -45 823 -53 158 -56 154 171
216 984 268 1516 1041 1515 2197 -1 411 -86 719 -288 1046 l-87 141 10 352
c21 708 -140 1013 -511 970 -161 -19 -447 -120 -644 -227 -93 -50 -210 -112
-260 -137 l-90 -45 -270 48 c-504 90 -1046 86 -1548 -12 l-202 -39 -110 60
c-1092 601 -1423 457 -1395 -609 9 -374 9 -382 -36 -441 -417 -547 -444 -1635
-57 -2345 258 -473 687 -808 1228 -957 232 -65 230 -63 189 -166 -97 -241
-621 -178 -819 99 -457 636 -935 820 -1205 462 -117 -155 -70 -266 227 -536
168 -153 189 -181 319 -429 281 -539 630 -758 1208 -758 l181 0 0 -230 c0
-264 13 -252 -197 -169 -1254 500 -2148 1570 -2439 2919 -82 380 -81 1242 1
1625 449 2082 2364 3413 4492 3124z"/>
<path d="M2580 5520 l0 -380 85 0 85 0 -6 245 c-4 134 -1 239 5 232 10 -9 69
-399 71 -462 0 -8 26 -15 58 -15 64 0 68 10 94 270 24 247 47 233 42 -25 l-4
-245 85 0 85 0 0 380 0 380 -128 0 -128 0 -14 -182 c-17 -213 -42 -202 -62 27
l-13 155 -128 0 -127 0 0 -380z"/>
<path d="M3350 5738 c-79 -46 -90 -80 -90 -290 0 -257 20 -290 186 -303 104
-9 117 -5 173 51 84 84 93 404 15 495 -53 62 -213 88 -284 47z m150 -288 c0
-156 -5 -190 -30 -190 -25 0 -30 34 -30 190 0 156 5 190 30 190 25 0 30 -34
30 -190z"/>
<path d="M3740 5450 l0 -310 100 0 100 0 0 190 c0 185 1 190 50 202 46 11 50
22 50 120 0 122 -17 133 -81 53 l-44 -55 10 55 c9 54 7 55 -88 55 l-97 0 0
-310z"/>
<path d="M4189 5741 c-113 -46 -153 -446 -53 -545 123 -124 384 -31 384 135 0
68 -1 69 -90 69 -90 0 -90 0 -90 -71 0 -112 -68 -88 -76 26 l-6 85 131 0 131
0 0 79 c0 189 -155 293 -331 222z m147 -158 c5 -32 -3 -43 -35 -43 -26 0 -41
13 -41 37 0 76 65 81 76 6z"/>
<path d="M5580 4690 l0 -170 -170 0 -170 0 0 -110 0 -110 170 0 170 0 0 -170
0 -170 110 0 110 0 0 170 0 170 170 0 170 0 0 110 0 110 -170 0 -170 0 0 170
0 170 -110 0 -110 0 0 -170z"/>
<path d="M3138 4542 c-74 -75 -89 -419 -21 -503 64 -79 244 -81 322 -3 95 94
94 433 -1 512 -90 76 -220 73 -300 -6z m182 -252 c0 -156 -5 -190 -30 -190
-25 0 -30 34 -30 190 0 156 5 190 30 190 25 0 30 -34 30 -190z"/>
<path d="M3570 4290 l0 -310 95 0 95 0 0 250 c0 209 5 250 30 250 25 0 30 -41
30 -250 l0 -250 90 0 90 0 0 277 c0 301 -15 343 -120 343 -26 0 -63 -15 -83
-33 -34 -31 -37 -31 -37 0 0 26 -20 33 -95 33 l-95 0 0 -310z"/>
<path d="M2335 3522 l-65 -59 -7 -250 c-5 -200 0 -264 26 -319 52 -108 180
-148 257 -79 29 26 42 28 49 10 4 -14 35 -25 67 -25 l58 0 0 200 0 200 -110 0
c-109 0 -110 -1 -110 -60 0 -33 10 -60 21 -60 39 0 14 -169 -26 -176 -32 -6
-35 17 -35 275 0 236 5 281 30 281 22 0 30 -23 30 -90 l0 -90 100 0 100 0 0
69 c0 209 -229 312 -385 173z"/>
<path d="M2800 3510 c0 -47 7 -50 100 -50 93 0 100 3 100 50 0 47 -7 50 -100
50 -93 0 -100 -3 -100 -50z"/>
<path d="M3360 3180 l0 -380 103 0 103 0 -14 160 c-12 153 -11 160 29 160 40
0 42 -9 36 -160 l-7 -160 100 0 100 0 0 380 0 380 -100 0 -100 0 7 -140 c6
-132 4 -140 -37 -140 -41 0 -42 6 -29 140 l14 140 -102 0 -103 0 0 -380z"/>
<path d="M4380 3180 l0 -380 88 0 c61 0 91 9 100 31 11 29 15 29 43 0 44 -43
121 -39 169 9 58 58 61 495 3 547 -45 41 -130 43 -170 3 -45 -45 -48 -39 -38
70 l10 100 -102 0 -103 0 0 -380z m250 -72 c0 -145 -6 -178 -30 -178 -31 0
-56 280 -31 345 32 82 61 2 61 -167z"/>
<path d="M3060 3450 c0 -27 -9 -50 -20 -50 -11 0 -20 -22 -20 -50 0 -27 11
-50 25 -50 18 0 26 -60 28 -224 4 -257 15 -276 161 -276 78 0 86 4 86 50 0 31
-11 50 -30 50 -25 0 -30 36 -30 200 0 120 8 200 20 200 11 0 20 23 20 50 0 28
-9 50 -20 50 -11 0 -20 23 -20 50 0 47 -7 50 -100 50 -93 0 -100 -3 -100 -50z"/>
<path d="M2800 3110 l0 -310 102 0 c85 0 100 5 90 32 -7 17 -12 157 -12 310
l0 278 -90 0 -90 0 0 -310z"/>
<path d="M3880 3150 c0 -329 50 -411 201 -329 27 14 39 14 39 0 0 -12 44 -21
100 -21 l100 0 0 310 0 310 -103 0 -102 0 7 -245 c7 -208 3 -245 -22 -245 -25
0 -30 41 -30 245 l0 245 -95 0 -95 0 0 -270z"/>
</g>
</svg>
