<?xml version="1.0" standalone="no"?>
<!DOCTYPE svg PUBLIC "-//W3C//DTD SVG 20010904//EN"
 "http://www.w3.org/TR/2001/REC-SVG-20010904/DTD/svg10.dtd">
<svg version="1.0" xmlns="http://www.w3.org/2000/svg"
 width="300.000000pt" height="186.000000pt" viewBox="0 0 300.000000 186.000000"
 preserveAspectRatio="xMidYMid meet">
<metadata>
Created by potrace 1.10, written by Peter Selinger 2001-2011
</metadata>
<g transform="translate(0.000000,186.000000) scale(0.100000,-0.100000)"
fill="#FFFFFF" stroke="white">
<path d="M535 1692 c-65 -31 -121 -86 -157 -154 -20 -38 -23 -62 -28 -223 -5
-142 -9 -187 -23 -212 -22 -41 -60 -70 -108 -83 l-39 -11 0 -72 0 -72 49 -18
c56 -20 96 -61 111 -115 5 -20 10 -101 10 -179 0 -121 3 -151 22 -200 39 -106
168 -203 268 -203 l30 0 0 74 0 74 -44 11 c-51 13 -110 73 -120 123 -3 17 -6
92 -6 168 0 160 -13 212 -70 287 l-37 49 24 30 c13 16 36 52 51 79 25 47 26
60 32 230 3 109 10 188 17 201 21 37 81 83 118 90 l35 6 0 74 0 74 -37 0 c-21
0 -65 -13 -98 -28z"/>
<path d="M2340 1648 l0 -76 36 -6 c47 -9 111 -68 124 -114 5 -21 10 -101 10
-178 0 -164 12 -215 69 -290 l37 -49 -38 -48 c-55 -71 -68 -125 -68 -296 0
-120 -4 -153 -19 -187 -22 -48 -59 -80 -112 -96 l-39 -11 0 -74 0 -73 30 0
c57 0 142 41 196 94 79 79 94 131 94 319 0 126 4 159 19 193 22 48 59 80 112
96 l39 11 0 73 0 73 -42 12 c-52 14 -103 63 -117 114 -6 22 -11 104 -11 182 0
118 -3 151 -20 197 -40 105 -145 190 -250 203 l-50 6 0 -75z"/>
<path d="M1640 1482 c-44 -21 -74 -79 -65 -122 10 -46 46 -73 142 -105 79 -27
88 -33 91 -57 7 -58 -88 -80 -137 -30 -15 15 -30 33 -32 41 -8 22 -79 6 -79
-18 0 -29 43 -85 80 -103 43 -22 137 -24 185 -4 62 26 91 105 61 168 -20 42
-52 61 -136 83 -73 19 -90 29 -90 56 0 40 85 54 120 19 11 -11 20 -24 20 -30
0 -5 20 -10 45 -10 44 0 45 1 39 28 -11 44 -33 69 -75 86 -52 21 -125 20 -169
-2z"/>
<path d="M770 1281 l0 -211 40 0 40 0 0 85 c0 70 3 87 16 92 34 13 69 -13 124
-92 55 -79 56 -80 103 -83 26 -2 47 1 47 6 0 17 -81 137 -108 159 l-26 22 27
6 c76 19 103 126 48 187 l-29 33 -141 3 -141 4 0 -211z m238 127 c7 -7 12 -24
12 -38 0 -41 -17 -50 -97 -50 l-73 0 0 50 0 50 73 0 c43 0 78 -5 85 -12z"/>
<path d="M1190 1280 l0 -211 158 3 157 3 3 38 3 37 -121 0 -121 0 3 53 3 52
103 3 102 3 0 34 0 34 -102 3 -103 3 -3 43 -3 42 115 0 116 0 0 35 0 35 -155
0 -155 0 0 -210z"/>
<path d="M1940 1455 l0 -35 60 0 60 0 2 -172 3 -173 40 0 40 0 3 173 2 172 60
0 60 0 0 35 0 35 -165 0 -165 0 0 -35z"/>
<path d="M1171 768 c-5 -13 -35 -88 -66 -168 -31 -80 -63 -162 -71 -183 l-13
-38 46 3 c45 3 47 4 61 46 l14 42 83 0 83 0 18 -45 c17 -45 17 -45 64 -45 l48
0 -81 205 -82 205 -48 0 c-40 0 -49 -4 -56 -22z m83 -152 c14 -37 26 -70 26
-72 0 -2 -25 -4 -56 -4 -50 0 -55 2 -49 18 4 9 16 43 27 75 11 32 22 57 23 55
2 -2 15 -34 29 -72z"/>
<path d="M1480 585 l0 -205 45 0 45 0 0 75 0 75 48 0 c77 1 124 16 156 51 26
29 28 37 24 92 -4 52 -9 64 -36 88 -32 29 -34 29 -157 29 l-125 0 0 -205z
m214 119 c22 -21 21 -71 -1 -82 -10 -6 -42 -13 -70 -17 l-53 -7 0 61 0 61 54
0 c36 0 60 -5 70 -16z"/>
<path d="M1870 585 l0 -205 40 0 40 0 0 205 0 205 -40 0 -40 0 0 -205z"/>
</g>
</svg>
