 <svg  version="1.0" xmlns="http://www.w3.org/2000/svg"  width="300.000000pt" height="125.000000pt" viewBox="0 0 300.000000 125.000000"  preserveAspectRatio="xMidYMid meet">  <g transform="translate(0.000000,125.000000) scale(0.100000,-0.100000)" fill="#FFFFFF" stroke="white"> <path d="M1312 1202 c-39 -12 -94 -63 -114 -108 -10 -24 -20 -44 -22 -44 -2 0 -20 7 -39 15 -89 37 -173 7 -215 -75 -19 -36 -22 -55 -18 -94 13 -114 91 -211 219 -272 72 -34 256 -79 268 -66 23 24 112 196 130 250 43 128 11 286 -71 355 -26 22 -92 49 -110 46 -3 -1 -15 -4 -28 -7z m102 -45 c83 -47 126 -202 91 -325 -9 -31 -21 -61 -25 -67 -7 -9 -20 -33 -87 -157 -15 -29 -30 -31 -108 -13 -222 51 -355 171 -355 319 0 52 3 60 38 96 30 33 45 41 82 44 25 2 50 0 55 -5 6 -4 29 -11 51 -15 39 -6 41 -5 54 27 21 54 51 90 84 105 44 19 75 17 120 -9z"/> <path d="M1695 1163 c-36 -10 -66 -36 -93 -82 -24 -41 -27 -56 -27 -137 0 -88 1 -93 47 -185 72 -141 62 -134 155 -115 189 39 314 150 315 281 1 56 -27 103 -76 128 -39 21 -50 20 -136 -9 -11 -4 -21 7 -33 35 -28 63 -94 100 -152 84z m79 -34 c13 -6 36 -34 51 -61 26 -47 29 -50 59 -44 106 21 110 20 149 -17 37 -34 38 -36 32 -91 -6 -65 -17 -88 -64 -134 -57 -56 -131 -95 -206 -108 -5 -1 -12 -3 -15 -4 -51 -19 -75 -7 -116 61 -69 114 -87 214 -54 302 34 91 96 127 164 96z"/> <path d="M324 491 c-72 -33 -96 -97 -51 -138 12 -12 53 -35 90 -53 37 -17 75 -43 83 -56 23 -35 11 -84 -32 -127 -65 -65 -186 -86 -271 -48 -53 25 -66 50 -61 117 4 42 12 63 37 94 38 48 28 53 -16 8 -62 -64 -71 -137 -23 -192 76 -86 260 -78 358 17 94 90 81 144 -50 211 -73 37 -108 67 -108 91 0 26 52 64 106 76 47 11 60 10 89 -4 41 -20 48 -59 14 -77 -11 -7 -18 -14 -15 -17 3 -3 17 2 31 11 24 16 33 49 17 72 -25 38 -131 46 -198 15z"/> <path d="M2389 475 c-25 -25 -25 -25 -65 -9 -129 56 -324 -21 -324 -127 0 -38 42 -79 80 -79 31 0 90 45 90 69 0 20 -18 11 -24 -12 -8 -33 -51 -51 -87 -37 -35 15 -42 45 -22 88 33 70 145 114 236 93 77 -17 86 -25 60 -53 -12 -13 -46 -69 -77 -126 -31 -57 -66 -116 -78 -132 l-21 -29 -48 25 c-78 39 -139 28 -139 -25 0 -56 68 -76 145 -42 45 20 49 20 94 5 109 -39 210 -17 258 56 47 68 24 199 -46 264 -17 17 -31 33 -31 37 0 3 12 18 26 33 17 17 22 26 13 26 -8 0 -26 -11 -40 -25z m42 -130 c55 -96 33 -204 -51 -248 -38 -20 -115 -18 -177 4 l-33 11 33 38 c17 21 63 90 102 153 78 129 76 129 126 42z m-330 -214 l44 -20 -37 -15 c-63 -27 -108 -19 -108 18 0 13 3 26 7 29 12 12 50 7 94 -12z"/> <path d="M1018 397 c-7 -8 -26 -40 -41 -73 -28 -58 -30 -60 -63 -56 -30 4 -40 -1 -74 -37 -22 -23 -40 -48 -40 -56 0 -16 -48 -75 -61 -75 -15 0 -10 23 21 88 17 35 30 65 30 66 0 1 -19 0 -42 -2 -42 -4 -43 -4 -25 15 21 24 22 53 2 53 -8 0 -15 -7 -15 -16 0 -29 -61 -161 -84 -183 -33 -31 -60 -24 -64 15 -3 28 0 32 28 37 37 8 83 51 78 75 -2 10 -14 18 -28 20 -33 4 -86 -48 -101 -98 -14 -47 -8 -66 26 -82 37 -17 73 13 110 89 19 39 36 62 47 62 28 1 28 -13 2 -65 -14 -28 -22 -58 -19 -66 11 -28 35 -29 61 -3 16 16 24 19 24 10 0 -8 9 -19 19 -24 14 -8 25 -6 45 10 14 11 26 25 26 31 0 7 -11 1 -25 -12 -35 -33 -54 -15 -34 32 18 45 77 108 100 108 25 0 24 -4 -10 -60 -30 -49 -32 -88 -5 -111 11 -9 20 -8 39 5 14 9 25 22 25 28 0 6 -9 3 -19 -6 -30 -27 -42 -12 -26 34 17 47 113 228 126 236 14 8 11 24 -5 24 -8 0 -21 -6 -28 -13z m-368 -151 c0 -20 -31 -53 -57 -61 -30 -8 -29 -2 8 40 33 37 49 44 49 21z"/> <path d="M1607 392 c-27 -29 -128 -223 -122 -233 3 -4 -1 -22 -10 -39 -8 -16 -14 -30 -13 -31 31 -8 36 -5 41 33 3 22 12 47 21 57 9 10 13 20 10 23 -8 9 39 97 80 151 20 26 36 49 36 52 0 12 -28 3 -43 -13z"/> <path d="M1233 281 c-9 -11 -35 -55 -57 -98 -39 -73 -76 -107 -76 -68 0 22 40 116 58 138 14 15 13 17 -6 17 -17 0 -29 -15 -53 -65 -36 -72 -74 -114 -89 -99 -11 11 30 116 57 147 15 16 14 17 -8 16 -19 0 -30 -13 -56 -66 -28 -58 -31 -69 -20 -91 18 -37 34 -38 67 -2 l30 32 0 -25 c0 -30 27 -43 49 -23 13 12 19 12 34 1 20 -15 92 -11 113 6 7 6 23 32 35 57 12 26 29 55 37 65 16 18 82 24 82 7 0 -5 -3 -10 -7 -10 -5 0 -21 -20 -37 -44 -17 -24 -45 -51 -63 -60 -19 -9 -31 -21 -28 -26 4 -6 11 -7 17 -4 6 4 37 6 69 5 53 -1 59 0 79 29 12 17 20 33 17 36 -2 2 -12 -7 -21 -21 -16 -24 -63 -35 -79 -19 -8 8 70 121 89 128 8 3 14 9 14 14 0 11 -117 9 -129 -3 -5 -5 -27 -41 -48 -80 -24 -44 -46 -71 -58 -74 -20 -3 -20 -3 -1 17 14 16 17 29 12 54 -19 95 -19 99 3 105 11 3 18 9 15 14 -8 14 -23 11 -41 -10z m-3 -112 c0 -29 -6 -51 -15 -59 -15 -13 -15 -13 -29 34 -7 21 27 97 36 83 4 -7 8 -33 8 -58z m-46 -54 c3 -8 1 -15 -4 -15 -6 0 -10 7 -10 15 0 8 2 15 4 15 2 0 6 -7 10 -15z"/> <path d="M2722 268 c-7 -7 -12 -28 -12 -47 0 -47 -39 -115 -68 -119 -15 -2 -22 2 -22 12 0 22 30 96 52 129 19 27 19 27 -1 27 -27 0 -81 -105 -74 -143 11 -56 56 -59 93 -7 19 26 60 131 60 152 0 12 -14 10 -28 -4z"/> <path d="M1580 248 c-19 -13 -36 -30 -38 -38 -3 -10 4 -7 20 8 13 12 32 22 41 22 31 0 18 -29 -20 -47 -46 -22 -56 -60 -24 -92 27 -27 46 -26 75 2 23 23 23 23 32 3 14 -31 32 -30 64 4 l30 32 0 -25 c0 -32 27 -43 53 -20 24 22 61 93 48 93 -5 0 -12 -9 -16 -19 -8 -25 -44 -71 -56 -71 -15 0 -10 24 16 76 29 58 29 54 10 54 -8 0 -30 -24 -48 -52 -42 -66 -64 -85 -79 -70 -15 15 7 67 50 114 34 38 66 49 75 26 2 -7 8 -10 12 -6 14 13 -7 28 -40 28 -42 0 -99 -46 -115 -94 -15 -47 -56 -83 -78 -70 -9 6 -18 24 -20 40 -2 24 2 31 26 40 17 6 37 23 47 37 31 49 -8 63 -65 25z"/> <path d="M2546 241 c-19 -35 -46 -111 -46 -128 0 -7 9 -17 19 -22 14 -8 25 -6 45 10 14 11 26 25 26 31 0 7 -10 2 -23 -10 -49 -46 -50 -11 -4 82 30 58 31 66 16 66 -10 0 -25 -13 -33 -29z"/> <path d="M2810 244 c-38 -32 -60 -73 -60 -112 0 -56 35 -62 79 -13 13 15 21 19 18 9 -8 -23 16 -53 37 -45 19 8 79 98 70 106 -4 3 -9 1 -11 -6 -8 -24 -48 -77 -60 -81 -20 -6 -15 26 12 79 21 43 22 49 7 49 -10 -1 -33 -26 -54 -61 -53 -84 -92 -96 -70 -21 21 69 110 140 125 100 2 -7 8 -9 13 -5 5 4 2 12 -6 17 -27 17 -68 10 -100 -16z"/> </g> </svg> 
