<?xml version="1.0" standalone="no"?>
<!DOCTYPE svg PUBLIC "-//W3C//DTD SVG 20010904//EN"
 "http://www.w3.org/TR/2001/REC-SVG-20010904/DTD/svg10.dtd">
<svg version="1.0" xmlns="http://www.w3.org/2000/svg"
 width="100.000000pt" height="100.000000pt" viewBox="0 0 300.000000 276.000000"
 preserveAspectRatio="xMidYMid meet">
<metadata>
Created by potrace 1.10, written by Peter Selinger 2001-2011
</metadata>
<g transform="translate(0.000000,276.000000) scale(0.100000,-0.100000)"
fill="#FFFFFF" stroke="white">
<path d="M1153 2669 c-54 -27 -99 -78 -131 -149 -14 -30 -26 -57 -28 -59 -2
-2 -20 7 -41 20 -32 19 -53 23 -124 23 -77 1 -89 -2 -127 -27 -191 -126 -140
-409 105 -584 35 -25 95 -58 133 -74 70 -28 238 -72 320 -83 l45 -6 52 82
c155 249 203 415 169 578 -29 137 -104 249 -192 286 -50 21 -132 18 -181 -7z
m201 -46 c86 -60 145 -192 146 -326 2 -129 -31 -222 -153 -432 -62 -107 -57
-104 -165 -80 -214 49 -327 101 -423 195 -180 176 -187 396 -15 479 53 26 101
27 166 1 89 -35 106 -28 153 65 46 92 112 136 196 130 39 -2 65 -11 95 -32z"/>
<path d="M1765 2629 c-56 -13 -106 -57 -142 -126 -69 -129 -67 -263 5 -423 16
-36 132 -240 136 -240 13 0 202 43 239 55 186 57 323 191 347 341 12 75 -2
131 -46 183 -63 73 -143 87 -248 41 -42 -18 -46 -18 -46 -2 0 36 -60 121 -103
146 -53 31 -89 38 -142 25z m128 -55 c14 -11 44 -49 67 -86 45 -74 52 -77 120
-53 88 31 160 12 209 -55 26 -36 29 -49 28 -103 -5 -148 -137 -293 -317 -346
-96 -29 -190 -49 -207 -45 -19 5 -61 68 -118 179 -69 133 -85 246 -52 355 22
72 82 151 127 167 46 17 111 11 143 -13z"/>
<path d="M578 1617 c-65 -19 -122 -59 -141 -100 -38 -78 -14 -112 128 -183 61
-31 122 -67 137 -82 78 -73 16 -204 -126 -268 -47 -21 -81 -29 -147 -32 -107
-5 -171 13 -219 63 -29 30 -34 43 -38 95 -6 77 17 139 69 191 47 47 26 53 -26
7 -50 -43 -87 -120 -87 -178 0 -121 109 -200 277 -200 131 0 235 42 316 127
57 60 69 84 69 134 0 67 -29 97 -161 164 -61 31 -119 65 -130 76 -26 26 -25
79 3 108 52 57 195 88 260 57 65 -31 75 -98 17 -118 -16 -5 -29 -14 -29 -19 0
-27 68 8 87 44 18 36 4 77 -35 103 -35 23 -160 29 -224 11z"/>
<path d="M1568 1463 c-9 -10 -37 -60 -62 -110 -45 -90 -47 -92 -71 -81 -19 9
-34 7 -70 -7 -51 -19 -84 -58 -128 -148 -29 -59 -70 -103 -86 -92 -15 8 -5 44
36 134 18 40 33 77 33 82 0 5 -23 9 -50 9 l-51 0 22 29 c14 19 19 36 14 50 -7
23 -33 29 -39 9 -64 -212 -128 -318 -192 -318 -30 0 -44 30 -35 74 5 24 13 32
40 37 50 10 79 29 102 66 37 60 0 99 -66 67 -77 -36 -141 -162 -113 -221 24
-50 87 -56 143 -12 22 18 90 138 107 191 6 16 58 1 58 -16 0 -8 -13 -40 -30
-71 -34 -64 -37 -96 -14 -119 23 -24 42 -20 80 18 26 26 34 30 34 17 0 -23 31
-51 55 -51 10 0 35 18 57 40 l38 41 0 -29 c0 -69 66 -71 113 -2 l17 24 0 -26
c0 -32 31 -53 66 -44 13 4 38 25 54 48 l30 41 0 -34 c0 -58 37 -76 80 -41 22
18 24 18 41 1 21 -21 94 -24 141 -7 30 11 67 60 98 131 29 65 53 87 94 87 68
0 69 -6 6 -89 -44 -59 -69 -82 -99 -95 -48 -19 -59 -53 -13 -41 33 10 44 10
107 0 43 -6 54 -4 78 15 16 12 42 47 59 76 16 30 31 54 33 54 2 0 -9 -29 -26
-65 -35 -79 -36 -85 -4 -85 19 0 25 5 25 23 0 47 23 101 61 142 47 51 105 83
122 66 18 -18 -3 -43 -59 -71 -46 -24 -49 -27 -52 -69 -3 -34 2 -49 19 -67 34
-37 95 -28 128 18 13 19 14 18 32 -11 12 -19 27 -31 40 -31 22 0 88 61 90 83
1 7 5 -6 8 -27 13 -82 71 -71 128 24 18 30 33 61 33 68 0 26 -16 10 -43 -42
-33 -64 -63 -94 -77 -80 -14 14 11 95 44 144 20 31 22 39 11 44 -26 10 -43 -4
-75 -60 -35 -63 -96 -134 -115 -134 -38 0 -17 82 41 161 50 68 116 101 130 64
8 -20 24 -19 24 0 0 21 -48 38 -88 30 -47 -9 -110 -70 -143 -139 -31 -66 -74
-116 -99 -116 -28 0 -50 34 -50 77 0 38 3 42 30 48 40 9 75 38 90 75 11 27 11
34 -2 47 -23 23 -79 1 -136 -53 -25 -24 -47 -44 -49 -44 -16 0 116 222 160
267 34 36 31 49 -8 39 -30 -8 -61 -53 -162 -240 -94 -173 -114 -196 -161 -195
-20 0 -45 4 -55 8 -18 6 -18 8 -2 21 9 7 32 38 52 67 20 30 51 67 69 81 45 36
48 65 4 42 -13 -7 -29 -5 -54 5 -31 13 -40 13 -70 1 -38 -16 -62 -46 -105
-135 -36 -75 -67 -111 -94 -111 -17 0 -16 3 7 31 31 37 32 57 6 131 -24 70
-15 108 25 108 14 0 25 5 25 10 0 6 -13 10 -29 10 -36 0 -62 -31 -115 -137
-19 -39 -40 -74 -46 -78 -5 -3 -10 -14 -10 -24 0 -22 -30 -51 -53 -51 -12 0
-17 8 -17 28 0 35 63 178 91 208 l22 24 -24 0 c-36 0 -42 -7 -92 -105 -69
-133 -137 -196 -137 -127 0 33 84 212 100 212 5 0 10 5 10 10 0 12 -40 13 -56
2 -6 -4 -34 -52 -63 -108 -55 -109 -90 -150 -117 -140 -12 4 -15 13 -10 34 7
32 122 259 177 350 22 35 39 66 39 68 0 12 -49 1 -62 -13z m-543 -213 c16 -26
-72 -110 -114 -110 -15 0 43 84 71 105 26 18 35 19 43 5z m425 -1 c0 -16 -68
-129 -107 -176 -34 -42 -67 -55 -75 -31 -14 42 55 162 115 198 35 22 67 26 67
9z m433 -119 c2 -54 -2 -73 -15 -86 -13 -14 -20 -15 -31 -5 -27 22 -27 72 1
134 31 70 42 60 45 -43z m-66 -86 c10 -22 9 -25 -5 -22 -9 2 -18 13 -20 26 -5
30 10 28 25 -4z"/>
<path d="M1449 740 l-42 -40 -43 20 c-157 77 -413 17 -480 -112 -61 -117 71
-236 182 -163 31 20 59 74 46 87 -7 7 -15 -1 -25 -24 -30 -72 -106 -91 -158
-39 -44 44 -37 90 25 158 89 100 258 129 398 69 l38 -16 -35 -45 c-19 -25 -55
-85 -81 -133 -72 -134 -136 -241 -159 -262 l-22 -20 -60 31 c-102 53 -182 48
-211 -14 -11 -22 -10 -31 2 -56 34 -65 187 -68 257 -5 14 13 21 12 63 -5 63
-28 168 -45 231 -38 213 22 296 263 156 458 -21 30 -51 61 -65 68 -14 8 -26
18 -26 22 0 5 17 26 38 49 36 37 41 50 21 50 -5 0 -27 -18 -50 -40z m11 -122
c17 -18 44 -61 61 -95 29 -57 31 -68 28 -146 -4 -76 -7 -90 -34 -128 -16 -23
-50 -53 -75 -67 -41 -22 -54 -23 -135 -19 -49 3 -111 13 -138 22 l-47 17 41
46 c39 45 164 238 225 349 16 29 32 53 37 53 4 0 21 -15 37 -32z m-449 -384
c33 -15 59 -30 59 -34 0 -15 -81 -40 -127 -40 -71 0 -107 45 -67 84 23 23 69
20 135 -10z"/>
<path d="M1940 430 c-15 -15 -20 -34 -20 -72 -1 -63 -40 -144 -82 -168 -62
-34 -61 35 3 163 16 33 37 66 47 74 15 12 13 13 -18 11 -33 -3 -37 -7 -77 -89
-48 -97 -112 -177 -132 -165 -8 5 -11 19 -8 36 8 40 86 200 97 200 6 0 10 5
10 10 0 6 -14 10 -31 10 -27 0 -33 -6 -60 -65 -17 -35 -32 -70 -33 -77 -1 -7
-9 -32 -16 -56 -13 -40 -12 -44 8 -64 29 -30 69 -16 102 36 l25 39 3 -34 c4
-42 18 -59 48 -59 30 0 90 52 113 99 17 32 61 167 61 185 0 12 -20 6 -40 -14z"/>
<path d="M2105 424 c-46 -23 -72 -52 -100 -108 -28 -57 -32 -117 -9 -140 25
-25 45 -19 90 29 42 43 43 44 38 17 -7 -32 16 -62 46 -62 22 0 72 55 100 110
23 45 24 50 10 50 -5 0 -21 -21 -34 -47 -28 -56 -63 -96 -77 -88 -18 12 -9 54
26 121 19 37 35 68 35 70 0 2 -9 4 -20 4 -20 0 -25 -6 -91 -108 -83 -127 -149
-115 -84 15 45 89 146 162 170 123 8 -12 25 -13 25 -2 0 12 -46 32 -73 32 -12
0 -35 -7 -52 -16z"/>
</g>
</svg>
